<?xml version="1.0" encoding="utf-8"?>
<!-- Generator: Adobe Illustrator 26.0.1, SVG Export Plug-In . SVG Version: 6.00 Build 0)  -->
<svg version="1.1" id="Layer_1" xmlns="http://www.w3.org/2000/svg" xmlns:xlink="http://www.w3.org/1999/xlink" x="0px" y="0px"
	 viewBox="0 0 60 40" style="enable-background:new 0 0 60 40;" xml:space="preserve">
<style type="text/css">
	.st0{fill-rule:evenodd;clip-rule:evenodd;fill:#FFFFFF;}
</style>
<g id="Layer_2_00000058574683313964921710000016828003280926701974_">
	<g id="Layer_1-2">
		<path class="st0" d="M8.5,39.3L11,27.1h4l-2.4,12.3H8.5z M20.5,35.3h2.5l-0.7-4.5L20.5,35.3z M15,39.3l6-12.3h3.9l2.5,12.3h-3.7
			l-0.2-1.4h-3.9L19,39.3H15z M31.1,39.3l1.4-9.2H29l0.6-3.1h10.7l-0.6,3.1h-3.3L35,39.3H31.1z M44.4,35.3H47l-0.7-4.5L44.4,35.3z
			 M38.9,39.3l6-12.3h4l2.5,12.3h-3.7l-0.2-1.4h-3.9l-0.6,1.4H38.9z M60,13.2H41.3c-0.7,3.4-3.1,6.3-7.8,8.3
			c0.7,1.8,2.3,3.1,4.3,3.2h10.2c1.5,0,2.8-1.3,3.3-2.4H40.8c-0.6-0.1-0.7-0.6,0-0.7H51c1.3,0,2.5-1.2,3.2-2.4H42.4
			c-0.6-0.1-0.6-0.6,0-0.7h11.9c1.2,0,2.3-1.4,2.7-2.3H43.9c-0.6-0.1-0.6-0.7,0-0.7h13.3C58.3,15.5,59.3,14.4,60,13.2L60,13.2z
			 M0,13.2h18.7c0.7,3.4,3.1,6.3,7.8,8.3c-0.7,1.8-2.3,3.1-4.3,3.2H12.1c-1.6,0-2.8-1.3-3.3-2.4h10.3c0.6-0.1,0.7-0.6,0-0.7H9
			c-1.3,0-2.5-1.2-3.2-2.4h11.8c0.6-0.1,0.6-0.6,0-0.7H5.8c-1.2,0-2.3-1.4-2.7-2.3h13.1c0.7-0.1,0.7-0.7,0-0.7H2.8
			C1.7,15.5,0.7,14.4,0,13.2z M23.9,2.9c0.7,0.6,1.5,1.1,2.3,1.4c0.7-1.4,1.7-2.6,2.8-3.6C27.2,0.9,25.4,1.6,23.9,2.9L23.9,2.9z
			 M20.6,9.7h4.2c0.1-1.7,0.5-3.3,1.2-4.8C25,4.5,24.2,4,23.5,3.3C21.7,5,20.7,7.3,20.6,9.7L20.6,9.7z M29.7,5.8v3.9h-4.2
			c0-1.6,0.4-3.1,1-4.6C27.5,5.5,28.6,5.7,29.7,5.8z M36.1,2.9c-0.7,0.6-1.5,1.1-2.3,1.4c-0.7-1.4-1.7-2.6-2.8-3.6
			C32.8,0.9,34.6,1.6,36.1,2.9L36.1,2.9z M39.4,9.7h-4.2c-0.1-1.6-0.4-3.3-1.1-4.8C35,4.5,35.9,4,36.6,3.3C38.3,5,39.3,7.3,39.4,9.7
			L39.4,9.7z M30.4,5.8v3.9h4.2c0-1.6-0.4-3.1-1.1-4.6C32.5,5.5,31.4,5.7,30.4,5.8z M23.9,17.2c0.7-0.6,1.5-1.1,2.3-1.4
			c0.7,1.4,1.7,2.6,2.8,3.6C27.2,19.2,25.4,18.5,23.9,17.2L23.9,17.2z M20.6,10.4h4.2c0.1,1.7,0.5,3.3,1.2,4.8
			c-0.9,0.4-1.7,0.9-2.5,1.6C21.8,15.1,20.8,12.8,20.6,10.4L20.6,10.4z M29.7,14.3v-3.9h-4.2c0,1.6,0.4,3.1,1,4.5
			C27.6,14.6,28.6,14.4,29.7,14.3L29.7,14.3z M36.1,17.2c-0.7-0.6-1.5-1.1-2.3-1.4c-0.7,1.4-1.7,2.6-2.8,3.6
			C32.8,19.2,34.6,18.5,36.1,17.2L36.1,17.2z M39.4,10.4h-4.2c0,1.7-0.4,3.3-1.1,4.8c0.9,0.4,1.7,0.9,2.5,1.6
			C38.3,15.1,39.3,12.8,39.4,10.4L39.4,10.4z M30.4,14.3v-3.9h4.2c0,1.6-0.4,3.1-1.1,4.5C32.5,14.6,31.4,14.4,30.4,14.3z M29.7,1.1
			c-1.2,1-2.1,2.1-2.8,3.5c0.9,0.3,1.8,0.5,2.8,0.5V1.1z M30.4,1.1c1.2,1,2.1,2.2,2.8,3.5c-0.9,0.3-1.8,0.5-2.8,0.5V1.1z M29.7,19
			c-1.2-0.9-2.1-2.1-2.8-3.5c0.9-0.3,1.8-0.5,2.8-0.5V19z M30.4,19c1.2-1,2.1-2.2,2.8-3.6c-0.9-0.3-1.8-0.5-2.8-0.5V19L30.4,19z"/>
	</g>
</g>
</svg>
