<?xml version="1.0" encoding="utf-8"?>
<!-- Generator: Adobe Illustrator 26.0.1, SVG Export Plug-In . SVG Version: 6.00 Build 0)  -->
<svg version="1.1" id="Layer_1" xmlns="http://www.w3.org/2000/svg" xmlns:xlink="http://www.w3.org/1999/xlink" x="0px" y="0px"
	 viewBox="0 0 60 60" style="enable-background:new 0 0 60 60;" xml:space="preserve">
<style type="text/css">
	.st0{fill:#FFFFFF;}
	.st1{enable-background:new    ;}
</style>
<g id="Layer_2_00000123429341634123385330000008932236859788031902_">
	<g id="Layer_1-2">
		<path class="st0" d="M35.2,33.5c-0.2,0.8-0.4,1.6-0.7,2.2c-1.6-0.2-3.2-0.2-4.9-0.2s-3.1,0.1-4.6,0.2c-0.2-0.7-0.5-1.4-0.7-2.2
			h-1.2c0.2,0.8,0.4,1.6,0.7,2.3c-2.1,0.2-4.2,0.6-6.3,1.2c-1.2-1-2.3-2.2-3.2-3.5h-1.4c5.9,9.3,18.3,12.1,27.6,6.1
			c2.5-1.6,4.6-3.7,6.1-6.1h-1.5c-0.9,1.3-2,2.5-3.2,3.5c-2.1-0.6-4.1-0.9-6.3-1.2c0.2-0.8,0.5-1.5,0.7-2.4L35.2,33.5z M18.7,37.9
			c1.8-0.4,3.7-0.7,5.5-0.9c0.6,1.6,1.5,3.1,2.7,4.4C23.9,40.9,21.1,39.7,18.7,37.9z M29.7,41.6c-1.5,0-3.1-1.8-4.3-4.8
			c1.4-0.1,2.8-0.2,4.2-0.2s3,0.1,4.4,0.2C32.8,39.9,31.3,41.6,29.7,41.6L29.7,41.6z M40.7,37.9c-2.4,1.8-5.2,2.9-8.1,3.4
			c1.2-1.3,2.1-2.8,2.7-4.4C37.2,37.2,39,37.5,40.7,37.9L40.7,37.9z"/>
		<path class="st0" d="M34.1,19.2V14h-4.2c-1.3-0.2-2.6-0.3-3.9-0.3c-4.8,0-8.1,1.8-8.1,5.7c0,7.7,11,4.3,11,7.2
			c0,0.9-0.9,1.4-3,1.4c-1.3,0-2.5-0.2-3.7-0.7v-1.1H18v5.2h4.2c1.4,0.2,2.7,0.3,4.1,0.3c6.3,0,8.5-2.6,8.5-5.7
			c0-7.6-11.2-4.1-11.2-7.2c0-0.7,0.8-1.3,2.7-1.3c1.2,0,2.5,0.2,3.6,0.7v1.1H34.1z"/>
		<polygon class="st0" points="5.6,27.1 5.6,31.4 16.8,31.4 16.8,27.1 13.9,27.1 13.9,18.3 16.8,18.3 16.8,14 5.6,14 5.6,18.3 
			8.4,18.3 8.4,27.1 		"/>
		<path class="st0" d="M45.1,12h1.5C40.7,2.7,28.3-0.1,19,5.9c-2.5,1.6-4.6,3.7-6.1,6.1h1.4c0.9-1.3,2-2.5,3.2-3.5
			c2,0.5,4.1,0.9,6.2,1.2c-0.2,0.8-0.5,1.5-0.7,2.4h1.2c0.2-0.8,0.4-1.6,0.7-2.2c1.6,0.1,3.2,0.2,4.9,0.2s3.1-0.1,4.6-0.2
			c0.2,0.7,0.5,1.4,0.7,2.2h1.2c-0.2-0.8-0.4-1.6-0.7-2.3C37.8,9.4,39.9,9,42,8.5C43.2,9.5,44.2,10.7,45.1,12z M24.1,8.4
			c-1.8-0.2-3.7-0.5-5.5-0.9c2.4-1.8,5.2-2.9,8.1-3.4C25.6,5.3,24.7,6.8,24.1,8.4L24.1,8.4z M29.8,8.7c-1.5,0-3-0.1-4.4-0.2
			c1.2-3,2.8-4.7,4.3-4.7s3.1,1.8,4.3,4.8C32.7,8.7,31.3,8.7,29.8,8.7L29.8,8.7z M35.3,8.5c-0.6-1.6-1.5-3.1-2.6-4.4
			c3,0.5,5.8,1.7,8.2,3.5C39,8,37.2,8.3,35.3,8.5L35.3,8.5z"/>
		<path class="st0" d="M45,13.7c-5.5,0-9.5,3.2-9.5,9s4,9,9.5,9s9.5-3.2,9.5-9S50.5,13.7,45,13.7z M45,27.6c-2.2,0-3.6-1.4-3.6-4.9
			s1.4-4.9,3.6-4.9s3.6,1.4,3.6,4.9S47.2,27.6,45,27.6z"/>
		<g class="st1">
			<path class="st0" d="M2.3,55.1l1-0.1c0.1,0.5,0.2,0.8,0.5,1s0.6,0.3,0.9,0.3c0.3,0,0.6-0.1,0.9-0.2s0.4-0.3,0.6-0.6
				s0.3-0.6,0.4-1s0.2-0.9,0.2-1.3c0,0,0-0.1,0-0.2c-0.2,0.3-0.5,0.6-0.9,0.8s-0.8,0.3-1.2,0.3c-0.7,0-1.3-0.3-1.8-0.8
				s-0.7-1.2-0.7-2c0-0.9,0.3-1.6,0.8-2.1s1.2-0.8,1.9-0.8c0.6,0,1.1,0.2,1.5,0.5s0.8,0.7,1.1,1.3s0.4,1.4,0.4,2.4
				c0,1.1-0.1,2-0.4,2.6s-0.6,1.1-1.1,1.5s-1,0.5-1.7,0.5c-0.7,0-1.2-0.2-1.6-0.6S2.4,55.8,2.3,55.1z M6.6,51.4
				c0-0.6-0.2-1.1-0.5-1.4S5.4,49.4,5,49.4c-0.5,0-0.9,0.2-1.2,0.6s-0.5,0.9-0.5,1.5c0,0.5,0.2,1,0.5,1.3s0.7,0.5,1.2,0.5
				c0.5,0,0.9-0.2,1.2-0.5S6.6,52,6.6,51.4z"/>
			<path class="st0" d="M8.8,52.9c0-1,0.1-1.8,0.3-2.5s0.5-1.1,0.9-1.4s0.9-0.5,1.6-0.5c0.5,0,0.9,0.1,1.2,0.3s0.6,0.5,0.9,0.8
				s0.4,0.8,0.5,1.3s0.2,1.2,0.2,2c0,1-0.1,1.8-0.3,2.4s-0.5,1.1-0.9,1.4s-0.9,0.5-1.6,0.5c-0.8,0-1.5-0.3-2-0.9
				C9.1,55.7,8.8,54.5,8.8,52.9z M9.9,52.9c0,1.4,0.2,2.3,0.5,2.8s0.7,0.7,1.2,0.7s0.9-0.2,1.2-0.7s0.5-1.4,0.5-2.8
				c0-1.4-0.2-2.4-0.5-2.8s-0.7-0.7-1.2-0.7c-0.5,0-0.9,0.2-1.2,0.6C10.1,50.5,9.9,51.5,9.9,52.9z"/>
			<path class="st0" d="M15.5,52.9c0-1,0.1-1.8,0.3-2.5s0.5-1.1,0.9-1.4s0.9-0.5,1.6-0.5c0.5,0,0.9,0.1,1.2,0.3s0.6,0.5,0.9,0.8
				s0.4,0.8,0.5,1.3s0.2,1.2,0.2,2c0,1-0.1,1.8-0.3,2.4s-0.5,1.1-0.9,1.4s-0.9,0.5-1.6,0.5c-0.8,0-1.5-0.3-2-0.9
				C15.8,55.7,15.5,54.5,15.5,52.9z M16.6,52.9c0,1.4,0.2,2.3,0.5,2.8s0.7,0.7,1.2,0.7s0.9-0.2,1.2-0.7s0.5-1.4,0.5-2.8
				c0-1.4-0.2-2.4-0.5-2.8s-0.7-0.7-1.2-0.7c-0.5,0-0.9,0.2-1.2,0.6C16.8,50.5,16.6,51.5,16.6,52.9z"/>
			<path class="st0" d="M26.2,57.1h-1.1v-6.7c-0.3,0.2-0.6,0.5-1,0.7s-0.8,0.4-1.1,0.5v-1c0.6-0.3,1.1-0.6,1.5-1s0.8-0.8,0.9-1.1
				h0.7V57.1z"/>
			<path class="st0" d="M29.4,52.1v-1.2h1.2v1.2H29.4z M29.4,57.1v-1.2h1.2v1.2H29.4z"/>
			<path class="st0" d="M37.7,56.1v1h-5.7c0-0.3,0-0.5,0.1-0.7c0.1-0.4,0.4-0.8,0.7-1.1s0.8-0.8,1.4-1.3c0.9-0.8,1.6-1.4,1.9-1.8
				s0.5-0.9,0.5-1.3c0-0.4-0.1-0.8-0.4-1.1s-0.7-0.4-1.2-0.4c-0.5,0-0.9,0.2-1.2,0.5s-0.5,0.7-0.5,1.3L32.3,51
				c0.1-0.8,0.4-1.4,0.8-1.8s1.1-0.6,2-0.6c0.8,0,1.5,0.2,2,0.7s0.7,1,0.7,1.7c0,0.3-0.1,0.7-0.2,1s-0.4,0.7-0.7,1s-0.9,0.9-1.6,1.5
				c-0.6,0.5-1,0.9-1.2,1.1s-0.3,0.4-0.4,0.6H37.7z"/>
			<path class="st0" d="M38.9,52.9c0-1,0.1-1.8,0.3-2.5s0.5-1.1,0.9-1.4s0.9-0.5,1.6-0.5c0.5,0,0.9,0.1,1.2,0.3s0.6,0.5,0.9,0.8
				s0.4,0.8,0.5,1.3s0.2,1.2,0.2,2c0,1-0.1,1.8-0.3,2.4s-0.5,1.1-0.9,1.4s-0.9,0.5-1.6,0.5c-0.8,0-1.5-0.3-2-0.9
				C39.1,55.7,38.9,54.5,38.9,52.9z M39.9,52.9c0,1.4,0.2,2.3,0.5,2.8s0.7,0.7,1.2,0.7s0.9-0.2,1.2-0.7s0.5-1.4,0.5-2.8
				c0-1.4-0.2-2.4-0.5-2.8s-0.7-0.7-1.2-0.7c-0.5,0-0.9,0.2-1.2,0.6C40.1,50.5,39.9,51.5,39.9,52.9z"/>
			<path class="st0" d="M49.5,57.1h-1.1v-6.7c-0.3,0.2-0.6,0.5-1,0.7s-0.8,0.4-1.1,0.5v-1c0.6-0.3,1.1-0.6,1.5-1s0.8-0.8,0.9-1.1
				h0.7V57.1z"/>
			<path class="st0" d="M52.2,54.9l1.1-0.1c0.1,0.6,0.3,1,0.6,1.3s0.6,0.4,1.1,0.4c0.5,0,0.9-0.2,1.3-0.5s0.5-0.8,0.5-1.3
				c0-0.5-0.2-0.9-0.5-1.2s-0.7-0.5-1.2-0.5c-0.2,0-0.4,0-0.7,0.1l0.1-0.9c0.1,0,0.1,0,0.2,0c0.4,0,0.9-0.1,1.2-0.4s0.5-0.6,0.5-1.1
				c0-0.4-0.1-0.7-0.4-1s-0.6-0.4-1-0.4c-0.4,0-0.8,0.1-1,0.4s-0.4,0.6-0.5,1.2l-1.1-0.2c0.1-0.7,0.4-1.3,0.9-1.6s1-0.6,1.7-0.6
				c0.5,0,0.9,0.1,1.3,0.3s0.7,0.5,0.9,0.8s0.3,0.7,0.3,1.1c0,0.4-0.1,0.7-0.3,1s-0.5,0.5-0.9,0.7c0.5,0.1,0.9,0.4,1.2,0.7
				s0.4,0.8,0.4,1.4c0,0.8-0.3,1.4-0.8,1.9s-1.2,0.8-2.1,0.8c-0.8,0-1.4-0.2-1.9-0.7S52.3,55.6,52.2,54.9z"/>
		</g>
	</g>
</g>
</svg>
