<svg xmlns="http://www.w3.org/2000/svg" viewBox="0 0 413.84 42.76"><defs><style>.cls-1{fill:#173540;}.cls-2{fill:#f2aa3b;}</style></defs><g id="Layer_2" data-name="Layer 2"><g id="Layer_1-2" data-name="Layer 1"><path class="cls-1" d="M0,42.05V.71H20.2q7.8,0,11.72,3a9.29,9.29,0,0,1,3.93,7.8,10,10,0,0,1-1.59,5.64,10.51,10.51,0,0,1-4.4,3.69,14.89,14.89,0,0,1-6.35,1.3l1.12-2.48a17,17,0,0,1,6.88,1.3,10.76,10.76,0,0,1,4.7,3.78,10.44,10.44,0,0,1,1.71,6.08,9.62,9.62,0,0,1-4.2,8.3q-4.18,3-12.34,3Zm9.51-7.2H20.73a10.56,10.56,0,0,0,5.61-1.24,4.24,4.24,0,0,0,1.95-3.84,4.28,4.28,0,0,0-1.95-3.9,10.46,10.46,0,0,0-5.61-1.24H8.8v-7H19a9.77,9.77,0,0,0,5.34-1.21,4.11,4.11,0,0,0,1.86-3.69A4,4,0,0,0,24.36,9.1,10,10,0,0,0,19,7.91H9.51Z"/><path class="cls-1" d="M43.94,24.81V17.42H60.66v7.39Z"/><path class="cls-1" d="M89.18,42.76a24.83,24.83,0,0,1-8.89-1.56,20.93,20.93,0,0,1-7.11-4.46,20.67,20.67,0,0,1-4.7-6.8,21.36,21.36,0,0,1-1.68-8.56,21.36,21.36,0,0,1,1.68-8.56A20.46,20.46,0,0,1,73.21,6a21.25,21.25,0,0,1,7.14-4.46A26.31,26.31,0,0,1,99,1.86a18.91,18.91,0,0,1,7.32,5.46L100.11,13a14.19,14.19,0,0,0-4.7-3.66,13.13,13.13,0,0,0-5.7-1.24,14.06,14.06,0,0,0-5.31,1A12.18,12.18,0,0,0,77.46,16a14.22,14.22,0,0,0-1,5.37,14.22,14.22,0,0,0,1,5.37,12.18,12.18,0,0,0,6.94,6.94,14.06,14.06,0,0,0,5.31,1,12.87,12.87,0,0,0,5.7-1.27,14.55,14.55,0,0,0,4.7-3.69l6.2,5.67A19.18,19.18,0,0,1,99,40.87,24.52,24.52,0,0,1,89.18,42.76Z"/><path class="cls-1" d="M131.88,42.76a24.9,24.9,0,0,1-9-1.59,22,22,0,0,1-7.21-4.49,20.23,20.23,0,0,1-4.75-6.8,21,21,0,0,1-1.69-8.5,21,21,0,0,1,1.69-8.53,20.31,20.31,0,0,1,4.75-6.77,22,22,0,0,1,7.18-4.49,24.7,24.7,0,0,1,9-1.59,25.18,25.18,0,0,1,9,1.56A21.63,21.63,0,0,1,148,6a20.37,20.37,0,0,1,4.75,6.8,21.36,21.36,0,0,1,1.68,8.56,21.43,21.43,0,0,1-1.68,8.53A20.29,20.29,0,0,1,148,36.74a21.63,21.63,0,0,1-7.18,4.46A25,25,0,0,1,131.88,42.76Zm-.06-8.09a13.11,13.11,0,0,0,5.11-1A12.37,12.37,0,0,0,141,30.92a12.78,12.78,0,0,0,2.74-4.2,14,14,0,0,0,1-5.34,14.08,14.08,0,0,0-1-5.35A12.84,12.84,0,0,0,141,11.84a12.23,12.23,0,0,0-4.11-2.77,13.11,13.11,0,0,0-5.11-1,13.28,13.28,0,0,0-5.13,1,11.84,11.84,0,0,0-4.11,2.77A13.11,13.11,0,0,0,119.86,16a14.08,14.08,0,0,0-1,5.35,14,14,0,0,0,1,5.34,13,13,0,0,0,2.72,4.2,12,12,0,0,0,4.11,2.77A13.28,13.28,0,0,0,131.82,34.67Z"/><path class="cls-2" d="M207,.71h-6.79l-1.12,1.9-14,23.76L169.57.71h-7.92V42.05h8.91V17.67l12.18,19.95H187L199.1,17.51l.07-.12.1,24.66h8.92V2.67Z"/><path class="cls-2" d="M237.67.71,222.5,26.37,208.19,2.67,207,.71h-6.79l-1.12,1.9V42.05H208V17.67l.18.3,12,19.65h4.25l12.19-20.23.1,24.66h8.91V.71Z"/><path class="cls-1" d="M265,34.37h22.5v7.68h-32V.71h31.24V8.39H265ZM264.3,17.3H282l2.2,3.76L282,24.81H264.3Z"/><path class="cls-1" d="M295.13,42.05V.71H313a23.28,23.28,0,0,1,9.57,1.8,13.92,13.92,0,0,1,6.2,5.17,14.28,14.28,0,0,1,2.19,8,14.24,14.24,0,0,1-2.19,8,13.62,13.62,0,0,1-6.2,5.08A24,24,0,0,1,313,30.48H300.38l4.37-4.14V42.05Zm9.62-14.65-4.37-4.54h12.11q4.36,0,6.62-1.89a6.6,6.6,0,0,0,2.24-5.32,6.49,6.49,0,0,0-2.24-5.28q-2.25-1.87-6.62-1.87H300.38L304.75,4Zm16.72,14.65-10.4-15h10.28l10.39,15Z"/><path class="cls-1" d="M358.32,42.76a24.83,24.83,0,0,1-8.89-1.56,20.93,20.93,0,0,1-7.11-4.46,20.67,20.67,0,0,1-4.7-6.8,21.36,21.36,0,0,1-1.68-8.56,21.36,21.36,0,0,1,1.68-8.56A20.46,20.46,0,0,1,342.35,6a21.25,21.25,0,0,1,7.14-4.46,26.31,26.31,0,0,1,18.64.3,18.91,18.91,0,0,1,7.32,5.46L369.25,13a14.19,14.19,0,0,0-4.7-3.66,13.13,13.13,0,0,0-5.7-1.24,14.06,14.06,0,0,0-5.31,1A12.26,12.26,0,0,0,346.6,16a14.22,14.22,0,0,0-1,5.37,14.22,14.22,0,0,0,1,5.37,12.26,12.26,0,0,0,6.94,6.94,14.06,14.06,0,0,0,5.31,1,12.87,12.87,0,0,0,5.7-1.27,14.55,14.55,0,0,0,4.7-3.69l6.2,5.67a19.18,19.18,0,0,1-7.32,5.49A24.52,24.52,0,0,1,358.32,42.76Z"/><path class="cls-1" d="M391.34,34.37h22.5v7.68h-32V.71h31.24V8.39H391.34Zm-.71-17.07h19.9v7.51h-19.9Z"/></g></g></svg>