<svg xmlns="http://www.w3.org/2000/svg" viewBox="0 0 26.84 25.35"><defs><style>.cls-1{fill:#fff;}</style></defs><g id="Layer_2" data-name="Layer 2"><g id="Layer_1-2" data-name="Layer 1"><path class="cls-1" d="M.28,25.34c-.25,0-.32,0-.26-.22q1.56-4.9,3.08-9.83c.1-.33.29-.4.58-.44l10.41-1.76,1.47-.25c.09,0,.23,0,.23-.13s-.14-.1-.23-.11L11.86,12l-8.24-1.4a.55.55,0,0,1-.52-.43c-1-3.25-2-6.5-3-9.75C.06.26-.06.1.06,0S.3.07.41.13L19.59,9.2l6.87,3.26c.15.07.37.09.38.27s-.23.16-.37.23L10.58,20.48.68,25.16Z"/></g></g></svg>