<svg xmlns="http://www.w3.org/2000/svg" viewBox="0 0 450 40"><defs><style>.cls-1{fill:#e6e6e6;}.cls-2{fill:#f58220;}.cls-3{fill:#3498db;}.cls-4{fill:#c0e4ff;}.cls-5{fill:#e74c3c;}.cls-6{fill:#f79f1a;}.cls-7{fill:#ff5f01;}.cls-8{fill:#5065a1;}.cls-9{fill:#a0d468;}.cls-10{fill:#ccc;}</style></defs><g id="Layer_2" data-name="Layer 2"><g id="Layer_1-2" data-name="Layer 1"><g id="credit_cards" data-name="credit cards"><g id="discover"><path class="cls-1" d="M446.36,0h-50.9a3.64,3.64,0,0,0-3.64,3.64V36.36A3.64,3.64,0,0,0,395.46,40h50.9A3.64,3.64,0,0,0,450,36.36V3.64A3.64,3.64,0,0,0,446.36,0"/><path class="cls-2" d="M450,25.17c-3,2-16.88,10.29-40,14.83h36.32A3.64,3.64,0,0,0,450,36.36Z"/></g><g id="amex"><path class="cls-3" d="M375.87,0H325a3.64,3.64,0,0,0-3.64,3.64V36.36A3.64,3.64,0,0,0,325,40h50.91a3.64,3.64,0,0,0,3.63-3.64V3.64A3.64,3.64,0,0,0,375.87,0"/><rect class="cls-4" x="321.32" y="10.23" width="43.1" height="7.47"/><rect class="cls-4" x="336.41" y="22.3" width="43.1" height="7.47"/></g><g id="mastercard"><path class="cls-1" d="M305.37,0H254.46a3.64,3.64,0,0,0-3.63,3.64V36.36A3.64,3.64,0,0,0,254.46,40h50.91A3.64,3.64,0,0,0,309,36.36V3.64A3.64,3.64,0,0,0,305.37,0"/><path class="cls-5" d="M279.91,11.1a12.74,12.74,0,1,0,0,17.79,12.71,12.71,0,0,1,0-17.79Z"/><path class="cls-6" d="M289,7.27a12.69,12.69,0,0,0-9.1,3.83,12.71,12.71,0,0,1,0,17.79A12.73,12.73,0,1,0,289,7.27Z"/><path class="cls-7" d="M279.91,11.1a12.71,12.71,0,0,0,0,17.79,12.71,12.71,0,0,0,0-17.79Z"/></g><g id="visa"><path class="cls-6" d="M180.33,32.73v3.63A3.64,3.64,0,0,0,184,40h50.91a3.64,3.64,0,0,0,3.64-3.64V32.73Z"/><rect class="cls-1" x="180.33" y="7.27" width="58.18" height="25.45"/><path class="cls-8" d="M234.88,0H184a3.64,3.64,0,0,0-3.64,3.64V7.27h58.19V3.64A3.64,3.64,0,0,0,234.88,0"/></g></g><path id="checked_icon" data-name="checked icon" class="cls-9" d="M16,4A16,16,0,1,0,32,20,16,16,0,0,0,16,4Zm-.75,22.92-1.14,1.22L13,26.88,6.85,19.69l2-2.17,5,3.69,10.94-9,2,2.17Z"/><path class="cls-10" d="M59.26,19.24,56.19,9.16l-3.1,10.08H50.84L46.56,6.32H48.9L52,16.82,55.16,6.34l2.14,0,3.14,10.5,3.12-10.5h2.25L61.49,19.24Z"/><path class="cls-10" d="M69.51,8.28v3.49h6.31v2H69.51v3.57h7.27v1.95H67.33V6.32h9.23v2Z"/><path class="cls-10" d="M86,16.33,84.8,19.24H82.53l5.7-12.92h2.24l5.65,12.92H93.79l-1.24-2.91Zm3.25-7.68-2.44,5.74h4.87Z"/><path class="cls-10" d="M108.14,8.26l-1.28,1.59a5,5,0,0,0-3.6-1.65,4.55,4.55,0,1,0,0,9.1,5.32,5.32,0,0,0,3.6-1.53l1.3,1.44a7.36,7.36,0,0,1-5,2.13,6.54,6.54,0,1,1,.08-13.08A7.15,7.15,0,0,1,108.14,8.26Z"/><path class="cls-10" d="M120.73,8.26l-1.27,1.59a5,5,0,0,0-3.6-1.65,4.55,4.55,0,1,0,0,9.1,5.35,5.35,0,0,0,3.6-1.53l1.29,1.44a7.36,7.36,0,0,1-5,2.13,6.54,6.54,0,1,1,.07-13.08A7.11,7.11,0,0,1,120.73,8.26Z"/><path class="cls-10" d="M125.15,8.28v3.49h6.31v2h-6.31v3.57h7.27v1.95H123V6.32h9.23v2Z"/><path class="cls-10" d="M140.23,6.32c3.25,0,5.12,1.61,5.12,4.41s-1.87,4.62-5.12,4.62h-3v3.89h-2.18V6.32Zm-3,7.07h2.88c2,0,3.12-.85,3.12-2.6s-1.13-2.51-3.12-2.51h-2.88Z"/><path class="cls-10" d="M152.23,8.28v11h-2.17v-11H146v-2h10.35v2Z"/><path class="cls-10" d="M56.24,26.12l-1,1.26a4,4,0,0,0-2.84-1.3,3.59,3.59,0,1,0,0,7.18,4.18,4.18,0,0,0,2.84-1.21l1,1.14a5.79,5.79,0,0,1-4,1.68,5.16,5.16,0,1,1,.06-10.32A5.69,5.69,0,0,1,56.24,26.12Z"/><path class="cls-10" d="M62.61,31.7a3.62,3.62,0,0,1-.47,0H59.72v3.07H58V24.59h4.14c2.61,0,4.11,1.27,4.11,3.49a3.27,3.27,0,0,1-2.11,3.3l2.29,3.41h-2Zm-.47-1.53c1.57,0,2.48-.67,2.48-2.05s-.91-2-2.48-2H59.72v4Z"/><path class="cls-10" d="M70.26,26.14v2.75h5v1.55h-5v2.81H76v1.54H68.54V24.59h7.29v1.55Z"/><path class="cls-10" d="M82.29,24.59a5.1,5.1,0,1,1-.05,10.2H78.11V24.59Zm-2.46,8.66h2.5a3.42,3.42,0,0,0,3.5-3.54,3.47,3.47,0,0,0-3.57-3.57H79.83Z"/><path class="cls-10" d="M89.4,34.79V24.59h1.72v10.2Z"/><path class="cls-10" d="M97.54,26.14v8.65H95.82V26.14H92.6V24.59h8.17v1.55Z"/><path class="cls-10" d="M114.4,26.12l-1,1.26a4,4,0,0,0-2.85-1.3,3.59,3.59,0,1,0,0,7.18,4.22,4.22,0,0,0,2.85-1.21l1,1.14a5.81,5.81,0,0,1-4,1.68,5.16,5.16,0,1,1,.06-10.32A5.64,5.64,0,0,1,114.4,26.12Z"/><path class="cls-10" d="M117.54,32.49l-1,2.3h-1.79l4.5-10.2H121l4.46,10.2h-1.84l-1-2.3Zm2.56-6.06L118.18,31H122Z"/><path class="cls-10" d="M131.46,31.7a3.62,3.62,0,0,1-.47,0h-2.42v3.07h-1.71V24.59H131c2.61,0,4.11,1.27,4.11,3.49a3.26,3.26,0,0,1-2.11,3.3l2.29,3.41h-1.95ZM131,30.17c1.58,0,2.48-.67,2.48-2.05s-.9-2-2.48-2h-2.42v4Z"/><path class="cls-10" d="M141.58,24.59a5.1,5.1,0,1,1-.05,10.2H137.4V24.59Zm-2.47,8.66h2.51a3.42,3.42,0,0,0,3.5-3.54,3.47,3.47,0,0,0-3.57-3.57h-2.44Z"/><path class="cls-10" d="M155.61,25.57l-.71,1.51a6.07,6.07,0,0,0-3-.94c-1,0-1.66.38-1.66,1.06,0,2.23,5.51,1,5.5,4.71,0,1.82-1.61,2.94-3.85,2.94a6.25,6.25,0,0,1-4.17-1.62l.74-1.48a5.4,5.4,0,0,0,3.46,1.48c1.19,0,1.91-.45,1.91-1.23,0-2.28-5.51-1-5.51-4.64,0-1.75,1.5-2.84,3.71-2.84A6.58,6.58,0,0,1,155.61,25.57Z"/></g></g></svg>